<svg width="130" height="99" viewBox="0 0 130 99" fill="none" xmlns="http://www.w3.org/2000/svg">
<rect y="-38" width="130" height="137" rx="20" fill="#002F10"/>
<path d="M47.363 37.0079V33.7918H35.3565V38.1326H41.5572L41.5375 38.5864C41.419 42.1182 38.7136 44.5056 34.8233 44.5056C30.0839 44.5056 27.0823 40.737 27.0823 34.5613C27.0823 28.504 29.9062 24.9327 34.6061 24.9327C37.8249 24.9327 40.2539 26.7085 41.1228 29.6878H47.1063C46.2572 23.9264 41.2413 20 34.5863 20C26.2134 20 21 25.5246 21 34.6402C21 43.8939 26.2134 49.458 34.7246 49.458C42.6631 49.458 47.363 44.7621 47.363 37.0079Z" fill="#D49941"/>
<path d="M59.3214 49.4185C65.7196 49.4185 69.8074 45.3343 69.8074 38.3693C69.8074 31.503 65.6604 27.3596 59.3214 27.3596C52.9824 27.3596 48.8354 31.5228 48.8354 38.3693C48.8354 45.3145 52.9232 49.4185 59.3214 49.4185ZM59.3214 45.0186C56.4777 45.0186 54.6807 42.6312 54.6807 38.3891C54.6807 34.1864 56.5172 31.7595 59.3214 31.7595C62.1255 31.7595 63.9423 34.1864 63.9423 38.3891C63.9423 42.6312 62.1453 45.0186 59.3214 45.0186Z" fill="#D49941"/>
<path d="M71.7142 48.9647H77.4805V20.4933L71.7142 23.4933V48.9647Z" fill="#D49941"/>
<path d="M88.017 49.3002C91.1371 49.3002 93.5858 47.6625 94.6127 45.3343H94.7114V48.9647H100.399V20.4933L94.6324 23.4933V31.4438H94.514C93.4871 29.0959 91.1174 27.478 88.0565 27.478C82.7444 27.478 79.3873 31.6411 79.3873 38.3496C79.3873 45.1172 82.7246 49.3002 88.017 49.3002ZM89.972 32.0949C92.8354 32.0949 94.6719 34.5416 94.6719 38.3891C94.6719 42.2563 92.8354 44.6634 89.972 44.6634C87.0691 44.6634 85.2918 42.276 85.2918 38.3891C85.2918 34.5218 87.0691 32.0949 89.972 32.0949Z" fill="#D49941"/>
<path d="M34.5074 80.5462C40.5896 80.5462 44.3614 77.409 44.3614 72.3974C44.3614 68.6288 41.5177 65.8073 37.6472 65.5114V65.3535C40.6686 64.8997 42.9988 62.2953 42.9988 59.1778C42.9988 54.8173 39.6417 52.0747 34.2901 52.0747H21.8886V80.5462H34.5074ZM27.8524 56.5141H32.7498C35.5342 56.5141 37.1338 57.8164 37.1338 60.1051C37.1338 62.5123 35.317 63.9132 32.1376 63.9132H27.8524V56.5141ZM27.8524 76.1068V67.8396H32.8486C36.3636 67.8396 38.2791 69.2602 38.2791 71.9239C38.2791 74.6467 36.4229 76.1068 32.9868 76.1068H27.8524Z" fill="#D49941"/>
<path d="M46.051 80.5462H51.8173V68.7275C51.8173 65.7481 53.4761 64.0118 56.3198 64.0118C57.1492 64.0118 57.9391 64.1499 58.413 64.3472V59.2764C58.018 59.1581 57.4454 59.0594 56.7739 59.0594C54.2857 59.0594 52.4887 60.5195 51.7383 63.2029H51.6198V57.3948L46.051 60.3948V80.5462Z" fill="#D49941"/>
<path d="M59.6682 80.5462H65.4344V59.3948H59.6682V80.5462ZM62.5513 57.0666C64.2891 57.0666 65.6319 55.7446 65.6319 54.0873C65.6319 52.4101 64.2891 51.1079 62.5513 51.1079C60.8135 51.1079 59.4707 52.4101 59.4707 54.0873C59.4707 55.7446 60.8135 57.0666 62.5513 57.0666Z" fill="#D49941"/>
<path d="M87.3061 67.2674C87.0494 62.4728 83.4158 58.941 77.689 58.941C71.35 58.941 67.3018 63.1634 67.3018 69.9508C67.3018 76.8565 71.35 81 77.7285 81C83.2973 81 87.0296 77.7839 87.3258 72.792H81.9545C81.599 75.1005 80.0982 76.4817 77.7878 76.4817C74.9244 76.4817 73.1471 74.114 73.1471 69.9508C73.1471 65.8665 74.9244 63.4594 77.768 63.4594C80.1377 63.4594 81.6188 65.0378 81.9545 67.2674H87.3061Z" fill="#D49941"/>
<path d="M94.8805 67.8791H94.8015V52.0747L89.0352 55.0747V80.5462H94.8015V73.5615L96.3023 71.9436L102.365 80.5462H109L100.528 68.471L108.605 59.3948H102.069L94.8805 67.8791Z" fill="#D49941"/>
</svg>
